<?xml version="1.0" encoding="UTF-8" standalone="no"?>
<!-- Created with Inkscape (http://www.inkscape.org/) -->

<svg
   xmlns:dc="http://purl.org/dc/elements/1.1/"
   xmlns:cc="http://creativecommons.org/ns#"
   xmlns:rdf="http://www.w3.org/1999/02/22-rdf-syntax-ns#"
   xmlns:svg="http://www.w3.org/2000/svg"
   xmlns="http://www.w3.org/2000/svg"
   xmlns:sodipodi="http://sodipodi.sourceforge.net/DTD/sodipodi-0.dtd"
   xmlns:inkscape="http://www.inkscape.org/namespaces/inkscape"
   width="772"
   height="250"
   viewBox="0 0 723.75004 234.37501"
   id="svg4359"
   version="1.1"
   inkscape:version="0.92.3 (2405546, 2018-03-11)"
   sodipodi:docname="banner.svg"
   inkscape:export-filename="/home/david/Programs/dev/wordpress.org/inlexa/assets/banner-772x250.png"
   inkscape:export-xdpi="192"
   inkscape:export-ydpi="192">
  <defs
     id="defs4361">
    <clipPath
       clipPathUnits="userSpaceOnUse"
       id="clipPath3804">
      <circle
         style="opacity:1;fill:#ffffff;fill-opacity:1;stroke:none;stroke-width:25.51161766;stroke-linecap:square;stroke-linejoin:miter;stroke-miterlimit:8;stroke-dasharray:none;stroke-opacity:1"
         id="circle3806"
         cx="-104.60268"
         cy="448.10327"
         r="14.560404" />
    </clipPath>
    <clipPath
       clipPathUnits="userSpaceOnUse"
       id="clipPath3808">
      <circle
         style="opacity:1;fill:#ffffff;fill-opacity:1;stroke:none;stroke-width:25.51161766;stroke-linecap:square;stroke-linejoin:miter;stroke-miterlimit:8;stroke-dasharray:none;stroke-opacity:1"
         id="circle3810"
         cx="-74.602661"
         cy="448.10327"
         r="14.560404" />
    </clipPath>
    <clipPath
       clipPathUnits="userSpaceOnUse"
       id="clipPath3812">
      <circle
         style="opacity:1;fill:#ffffff;fill-opacity:1;stroke:none;stroke-width:25.51161766;stroke-linecap:square;stroke-linejoin:miter;stroke-miterlimit:8;stroke-dasharray:none;stroke-opacity:1"
         id="circle3814"
         cx="15.397329"
         cy="448.10327"
         r="14.560404" />
    </clipPath>
    <clipPath
       clipPathUnits="userSpaceOnUse"
       id="clipPath3816">
      <circle
         style="opacity:1;fill:#ffffff;fill-opacity:1;stroke:none;stroke-width:25.51161766;stroke-linecap:square;stroke-linejoin:miter;stroke-miterlimit:8;stroke-dasharray:none;stroke-opacity:1"
         id="circle3818"
         cx="75.397301"
         cy="448.10327"
         r="14.560404" />
    </clipPath>
    <clipPath
       clipPathUnits="userSpaceOnUse"
       id="clipPath3820">
      <circle
         style="opacity:1;fill:#ffffff;fill-opacity:1;stroke:none;stroke-width:25.51161766;stroke-linecap:square;stroke-linejoin:miter;stroke-miterlimit:8;stroke-dasharray:none;stroke-opacity:1"
         id="circle3822"
         cx="135.39732"
         cy="448.10327"
         r="14.560404" />
    </clipPath>
    <clipPath
       clipPathUnits="userSpaceOnUse"
       id="clipPath3824">
      <circle
         style="opacity:1;fill:#ffffff;fill-opacity:1;stroke:none;stroke-width:25.51161766;stroke-linecap:square;stroke-linejoin:miter;stroke-miterlimit:8;stroke-dasharray:none;stroke-opacity:1"
         id="circle3826"
         cx="165.39731"
         cy="448.10324"
         r="14.560404" />
    </clipPath>
    <clipPath
       clipPathUnits="userSpaceOnUse"
       id="clipPath3812-6">
      <circle
         style="opacity:1;fill:#ffffff;fill-opacity:1;stroke:none;stroke-width:25.51161766;stroke-linecap:square;stroke-linejoin:miter;stroke-miterlimit:8;stroke-dasharray:none;stroke-opacity:1"
         id="circle3814-0"
         cx="15.397329"
         cy="448.10327"
         r="14.560404" />
    </clipPath>
    <mask
       maskUnits="userSpaceOnUse"
       id="mask1520">
      <circle
         style="opacity:1;fill:#ffffff;fill-opacity:1;stroke:none;stroke-width:0.98538196"
         id="circle1522"
         cx="4.42173"
         cy="343.92487"
         r="8.2856255" />
    </mask>
    <clipPath
       clipPathUnits="userSpaceOnUse"
       id="clipPath8693">
      <rect
         style="color:#000000;clip-rule:nonzero;display:inline;overflow:visible;visibility:visible;opacity:1;isolation:auto;mix-blend-mode:normal;color-interpolation:sRGB;color-interpolation-filters:linearRGB;solid-color:#000000;solid-opacity:1;fill:#0d496c;fill-opacity:1;fill-rule:nonzero;stroke:none;stroke-width:0.74740684;stroke-linecap:round;stroke-linejoin:round;stroke-miterlimit:4;stroke-dasharray:none;stroke-dashoffset:0;stroke-opacity:1;marker:none;color-rendering:auto;image-rendering:auto;shape-rendering:auto;text-rendering:auto;enable-background:accumulate"
         id="rect8695"
         width="726.56256"
         height="234.37502"
         x="-69.714287"
         y="121.98714"
         transform="scale(-1,1)" />
    </clipPath>
    <clipPath
       clipPathUnits="userSpaceOnUse"
       id="clipPath8693-6">
      <rect
         style="color:#000000;clip-rule:nonzero;display:inline;overflow:visible;visibility:visible;opacity:1;isolation:auto;mix-blend-mode:normal;color-interpolation:sRGB;color-interpolation-filters:linearRGB;solid-color:#000000;solid-opacity:1;fill:#0d496c;fill-opacity:1;fill-rule:nonzero;stroke:none;stroke-width:0.74740684;stroke-linecap:round;stroke-linejoin:round;stroke-miterlimit:4;stroke-dasharray:none;stroke-dashoffset:0;stroke-opacity:1;marker:none;color-rendering:auto;image-rendering:auto;shape-rendering:auto;text-rendering:auto;enable-background:accumulate"
         id="rect8695-7"
         width="726.56256"
         height="234.37502"
         x="-69.714287"
         y="121.98714"
         transform="scale(-1,1)" />
    </clipPath>
    <clipPath
       clipPathUnits="userSpaceOnUse"
       id="clipPath8693-6-3">
      <rect
         style="color:#000000;clip-rule:nonzero;display:inline;overflow:visible;visibility:visible;opacity:1;isolation:auto;mix-blend-mode:normal;color-interpolation:sRGB;color-interpolation-filters:linearRGB;solid-color:#000000;solid-opacity:1;fill:#0d496c;fill-opacity:1;fill-rule:nonzero;stroke:none;stroke-width:0.74740684;stroke-linecap:round;stroke-linejoin:round;stroke-miterlimit:4;stroke-dasharray:none;stroke-dashoffset:0;stroke-opacity:1;marker:none;color-rendering:auto;image-rendering:auto;shape-rendering:auto;text-rendering:auto;enable-background:accumulate"
         id="rect8695-7-5"
         width="726.56256"
         height="234.37502"
         x="-69.714287"
         y="121.98714"
         transform="scale(-1,1)" />
    </clipPath>
    <clipPath
       clipPathUnits="userSpaceOnUse"
       id="clipPath9051">
      <rect
         y="121.98716"
         x="-69.71431"
         height="234.37502"
         width="726.56262"
         id="rect9053"
         style="fill:#ff00ff;fill-opacity:1;stroke:none;stroke-width:6.56250048;stroke-linecap:round;stroke-linejoin:round;stroke-miterlimit:4;stroke-dasharray:none;stroke-opacity:1" />
    </clipPath>
  </defs>
  <sodipodi:namedview
     id="base"
     pagecolor="#ffffff"
     bordercolor="#666666"
     borderopacity="1.0"
     inkscape:pageopacity="0.0"
     inkscape:pageshadow="2"
     inkscape:zoom="1.240285"
     inkscape:cx="433.24969"
     inkscape:cy="156.53446"
     inkscape:document-units="px"
     inkscape:current-layer="layer1"
     showgrid="false"
     fit-margin-top="0"
     fit-margin-left="0"
     fit-margin-right="0"
     fit-margin-bottom="0"
     inkscape:window-width="2520"
     inkscape:window-height="926"
     inkscape:window-x="40"
     inkscape:window-y="24"
     inkscape:window-maximized="1"
     units="px" />
  <metadata
     id="metadata4364">
    <rdf:RDF>
      <cc:Work
         rdf:about="">
        <dc:format>image/svg+xml</dc:format>
        <dc:type
           rdf:resource="http://purl.org/dc/dcmitype/StillImage" />
        <dc:title />
      </cc:Work>
    </rdf:RDF>
  </metadata>
  <g
     inkscape:label="Capa 1"
     inkscape:groupmode="layer"
     id="layer1"
     transform="translate(69.714288,-121.98717)">
    <g
       id="layer2"
       inkscape:label="Fons"
       style="display:none"
       transform="matrix(0.93750005,0,0,0.93750005,-513.54846,173.60693)">
      <g
         transform="matrix(1.3333333,0,0,1.3333333,-6.8465397e-7,-32.000016)"
         style="display:inline"
         id="g5642">
        <rect
           y="-47.999989"
           x="0"
           height="144"
           width="288"
           id="rect4621"
           style="color:#000000;display:inline;overflow:visible;visibility:visible;opacity:1;fill:#000000;fill-opacity:1;fill-rule:nonzero;stroke:none;stroke-width:2;stroke-linecap:butt;stroke-linejoin:miter;stroke-miterlimit:4;stroke-dasharray:none;stroke-dashoffset:0;stroke-opacity:1;marker:none;enable-background:accumulate" />
      </g>
    </g>
    <path
       inkscape:connector-curvature="0"
       class="inlexa-8dugli"
       d="m 157.28738,177.8686 c -20.23101,-10e-6 -38.25499,9.93157 -49.4127,25.09456 -1.71657,2.12533 -3.18791,4.33235 -4.41403,6.81824 -4.781879,8.67181 -7.479346,18.72601 -7.479346,29.39327 0,33.84095 27.465126,61.30607 61.306076,61.30608 33.84095,-10e-6 61.30607,-27.46513 61.30607,-61.30608 0,-33.84096 -27.46512,-61.30608 -61.30607,-61.30607 0,-10e-6 0,-10e-6 0,0 m -6.98889,76.38322 c -10.17681,0.004 -18.51444,-8.4561 -18.51444,-18.73887 0,-10.31607 8.33763,-18.77631 18.51444,-18.73887 10.1768,-0.0374 18.51443,8.4228 18.51443,18.73887 0,10.28277 -8.33763,18.74301 -18.51443,18.73887 0,0.004 0,0.004 0,0 m 0,-42.97162 c -13.24212,-0.0611 -24.03198,10.85138 -24.03198,24.23275 0,13.34807 10.78986,24.26056 24.03198,24.23275 0.12261,0.0278 0.24522,0.0278 0.49045,-0.0233 -3.80098,1.52241 -7.96979,2.25808 -12.26122,2.29601 -18.63705,-0.0379 -33.84095,-15.36444 -33.84095,-34.2592 0,-5.50506 1.34873,-10.77738 3.67836,-15.37433 1.10351,-2.14672 2.45224,-4.23113 3.92359,-6.158 6.25322,-7.75949 15.69436,-12.78659 26.239,-12.72688 18.1466,-0.0597 32.98267,14.40853 33.84095,32.5498 -3.67836,-8.70014 -12.1386,-14.83075 -22.07018,-14.76964 0,-0.0611 0,-0.0611 0,0 m 6.98889,83.70667 c -30.16259,-0.0237 -54.68502,-23.93305 -55.78853,-53.86634 5.51755,15.34245 19.98578,26.37754 37.02887,26.39309 21.70235,-0.0156 39.3585,-17.79431 39.3585,-39.75308 0,-21.93638 -17.65615,-39.71514 -39.3585,-39.75308 -1.34873,0.0379 -2.69747,0.0379 -3.92359,0.20415 6.86628,-3.1089 14.59085,-4.82547 22.68325,-4.85043 30.77565,0.025 55.78853,25.03784 55.78853,55.8122 0,30.77693 -25.01288,55.78981 -55.78853,55.81349 0,-0.0237 0,-0.0237 0,0"
       id="path893"
       style="stroke-width:1.22612154;fill:#f25c9c;fill-opacity:1" />
    <path
       inkscape:connector-curvature="0"
       class="inlexa-7e4qr1"
       d="m 251.69873,222.60036 c 0,0.0217 0,50.90571 0,50.91398 0,-0.008 -8.58285,-0.008 -8.58285,0 0,-0.008 0,-50.89232 0,-50.91398 0,0.0217 8.58285,0.0217 8.58285,0 m 0,-9.24823 c 0,-0.0486 -8.58285,-0.0486 -8.58285,0 0,-0.0486 0,-9.73499 0,-9.73499 0,0 8.58285,0 8.58285,0 0,0 0,9.68636 0,9.73499 m 54.31719,25.50566 c 0,-0.051 0,34.64828 0,34.65655 0,-0.008 -8.58285,-0.008 -8.58285,0 0,-0.008 0,-31.39698 0,-31.34665 0,-8.87841 -2.57486,-13.29245 -10.91248,-13.33693 -4.90449,0.0445 -13.36473,3.10979 -13.36473,16.93887 0,0.0261 0,27.73644 0,27.74471 0,-0.008 -8.58285,-0.008 -8.58285,0 0,-0.008 0,-50.89232 0,-50.91398 0,0.0217 8.0924,0.0217 8.0924,0 0,0.0217 0,7.25578 0,7.2039 0,0.0519 0.12261,0.0519 0.12261,0 1.83919,-2.7682 6.62106,-8.65358 15.44914,-8.66414 7.84717,0.0106 17.77876,3.19847 17.77876,17.71767 0,-0.051 0,-0.051 0,0 m 21.45712,-35.24065 c 0,0 0,69.88893 0,69.8972 0,-0.008 -8.58285,-0.008 -8.58285,0 0,-0.008 0,-69.8972 0,-69.8972 0,0 8.58285,0 8.58285,0 m 47.45091,53.93182 c 0,0.0175 8.58285,0.0175 8.58285,0 -0.24523,2.46977 -2.69747,9.58128 -9.0733,13.92103 -2.32963,1.54563 -5.64016,3.50742 -13.85518,3.50459 -14.22301,0.003 -22.68324,-10.78704 -22.68324,-25.50565 0,-15.81181 7.47934,-28.31825 24.39981,-28.32881 14.71346,0.0106 21.82497,11.65871 21.82497,29.6917 0,-0.009 -37.15148,-0.009 -37.15148,0 0,10.65826 5.02709,16.78886 14.83607,16.74418 8.0924,0.0447 12.87427,-6.20854 13.1195,-10.02704 0,0.0175 0,0.0175 0,0 m -27.95557,-13.53163 c 0,-0.0608 28.3234,-0.0608 28.3234,0 -0.49045,-7.90797 -3.80097,-15.14209 -14.22301,-15.18657 -7.84718,0.0445 -14.10039,7.2786 -14.10039,15.18657 0,-0.0608 0,-0.0608 0,0 m 70.86982,3.3099 c 0,-0.0602 17.90137,26.17884 17.90137,26.18711 0,-0.008 -10.91248,-0.008 -10.91248,0 0,-0.008 -12.62905,-19.13577 -12.62905,-19.17793 0,0.0422 -12.26122,19.16966 -12.26122,19.17793 0,-0.008 -10.78987,-0.008 -10.78987,0 0,-0.008 17.90138,-26.24727 17.90138,-26.18711 0,-0.0602 -17.04309,-24.70521 -17.04309,-24.72687 0,0.0217 11.03509,0.0217 11.03509,0 0,0.0217 11.77077,17.92304 11.77077,17.91238 0,0.0107 11.77077,-17.89072 11.77077,-17.91238 0,0.0217 10.54464,0.0217 10.54464,0 0,0.0217 -17.28831,24.66671 -17.28831,24.72687 m 32.86005,-9.24824 c 0,-0.008 -7.96979,-0.008 -7.96979,0 0.49045,-12.14644 8.46024,-16.92831 21.08929,-16.93887 4.0462,0.0106 18.88228,1.11407 18.88228,14.21307 0,0.0205 0,29.3248 0,29.30231 0,2.1069 1.1035,2.96518 2.82007,3.01785 0.73568,-0.0527 1.83919,-0.17528 2.82008,-0.38941 0,-0.0311 0,6.22213 0,6.2304 -1.47134,0.35956 -2.69746,0.97262 -4.65926,0.9735 -7.60195,-8.8e-4 -8.82807,-3.92446 -9.0733,-7.78799 -3.31052,3.6183 -8.46024,8.27756 -18.39182,8.27473 -9.31852,0.003 -15.93958,-5.88255 -15.93958,-14.69981 0,-4.30224 1.22612,-14.23382 15.44913,-15.96539 0,0.015 14.1004,-1.70157 14.1004,-1.75229 2.08441,-0.19451 4.53665,-0.93018 4.53665,-6.0357 0,-5.31651 -3.92359,-8.25921 -12.01599,-8.27473 -9.68636,0.0155 -11.15771,5.90091 -11.64816,9.83233 0,-0.008 0,-0.008 0,0 m 23.41892,17.81502 c 0,-0.0441 0,-8.38172 0,-8.37208 -1.34873,1.09387 -3.55575,1.82954 -14.10039,3.21254 -4.16882,0.5788 -10.91248,1.80492 -10.91248,8.27474 0,5.54617 2.82008,8.8567 9.19591,8.85883 8.0924,-0.002 15.81696,-5.15184 15.81696,-11.97403 0,-0.0441 0,-0.0441 0,0"
       id="path895"
       style="stroke-width:1.22612154;fill:#5c0b82;fill-opacity:1" />
  </g>
</svg>
